<?xml version="1.0" encoding="utf-8"?>
<!-- Generator: Adobe Illustrator 22.0.1, SVG Export Plug-In . SVG Version: 6.00 Build 0)  -->
<svg version="1.1" id="Layer_1" xmlns="http://www.w3.org/2000/svg" xmlns:xlink="http://www.w3.org/1999/xlink" x="0px" y="0px"
	 viewBox="0 0 291 201" style="enable-background:new 0 0 291 201;" xml:space="preserve">
<style type="text/css">
	.st0{fill:#FFFFFF;}
	.st1{fill:url(#SVGID_1_);stroke:#EEEEF0;stroke-width:5;stroke-miterlimit:10;}
	.st2{fill:#787878;}
	.st3{fill:url(#SVGID_2_);}
	.st4{fill:url(#SVGID_3_);}
</style>
<g id="_x31_-1">
	<g id="White_1_">
		<g>
			<path class="st0" d="M113.8,197.4c-0.5,0-1.1-0.2-1.5-0.6c-0.8-0.8-0.7-2.1,0.1-2.8l24.7-23.3c0.8-0.8,2.1-0.7,2.8,0.1
				c0.8,0.8,0.7,2.1-0.1,2.8l-24.7,23.3C114.8,197.2,114.3,197.4,113.8,197.4z"/>
			<path class="st0" d="M128.1,195.1c-0.5,0-1.1-0.2-1.5-0.6c-0.8-0.8-0.7-2.1,0.1-2.8l17.5-16.6c0.8-0.8,2.1-0.7,2.8,0.1
				c0.8,0.8,0.7,2.1-0.1,2.8l-17.5,16.6C129.1,194.9,128.6,195.1,128.1,195.1z"/>
		</g>
		<path class="st0" d="M11,98.5H8.5V96c0-1.1-0.9-2-2-2s-2,0.9-2,2v2.5H2c-1.1,0-2,0.9-2,2s0.9,2,2,2h2.5v2.5c0,1.1,0.9,2,2,2
			s2-0.9,2-2v-2.5H11c1.1,0,2-0.9,2-2S12.1,98.5,11,98.5z"/>
		<circle class="st0" cx="190.5" cy="100.5" r="90"/>
		<linearGradient id="SVGID_1_" gradientUnits="userSpaceOnUse" x1="231.5" y1="178.5001" x2="271.5" y2="178.5001">
			<stop  offset="0" style="stop-color:#FBB447"/>
			<stop  offset="1" style="stop-color:#F05523"/>
		</linearGradient>
		<circle class="st1" cx="251.5" cy="178.5" r="20"/>
		<circle class="st0" cx="125" cy="17" r="2.5"/>
		<circle class="st0" cx="131" cy="11" r="1.5"/>
		<circle class="st0" cx="251.5" cy="178.5" r="3"/>
		<circle class="st0" cx="117.5" cy="32.5" r="3"/>
		<g>
			<path class="st0" d="M257.9,175l-0.7-0.7c1-0.9,2-1.8,2.9-2.7l0.7,0.7C259.9,173.2,258.9,174.1,257.9,175z"/>
			<path class="st0" d="M263.6,169.4l-0.7-0.7c0.9-1,1.8-1.9,2.7-2.9l0.8,0.7C265.4,167.5,264.5,168.5,263.6,169.4z"/>
			<path class="st0" d="M268.9,163.4l-0.8-0.6c0.8-1,1.6-2.1,2.4-3.1l0.8,0.6C270.5,161.3,269.7,162.4,268.9,163.4z"/>
			<path class="st0" d="M273.6,157l-0.8-0.6c0.7-1.1,1.5-2.2,2.2-3.3l0.8,0.5C275.1,154.8,274.4,155.9,273.6,157z"/>
			<path class="st0" d="M277.9,150.2l-0.9-0.5c0.7-1.2,1.3-2.3,1.9-3.5l0.9,0.5C279.2,147.9,278.5,149,277.9,150.2z"/>
			<path class="st0" d="M281.6,143.1l-0.9-0.4c0.6-1.2,1.1-2.4,1.6-3.6l0.9,0.4C282.7,140.7,282.1,141.9,281.6,143.1z"/>
			<path class="st0" d="M284.7,135.7l-0.9-0.3c0.5-1.2,0.9-2.5,1.3-3.7l0.9,0.3C285.6,133.2,285.1,134.5,284.7,135.7z"/>
			<path class="st0" d="M287.2,128.1l-1-0.3c0.4-1.3,0.7-2.6,1-3.8l1,0.2C287.9,125.5,287.5,126.8,287.2,128.1z"/>
			<path class="st0" d="M289,120.3l-1-0.2c0.3-1.3,0.5-2.6,0.7-3.9l1,0.2C289.5,117.7,289.3,119.1,289,120.3z"/>
			<path class="st0" d="M290.3,112.5l-1-0.1c0.2-1.3,0.3-2.6,0.4-3.9l1,0.1C290.6,109.8,290.5,111.1,290.3,112.5z"/>
			<path class="st0" d="M290.9,104.5l-1,0c0.1-1.3,0.1-2.6,0.1-4v-0.2h1v0.2C291,101.8,291,103.2,290.9,104.5z"/>
			<path class="st0" d="M289.9,96.3c-0.1-1.3-0.1-2.7-0.2-3.9l1-0.1c0.1,1.3,0.2,2.7,0.2,4L289.9,96.3z"/>
			<path class="st0" d="M289.3,88.5c-0.2-1.3-0.3-2.6-0.6-3.9l1-0.2c0.2,1.3,0.4,2.6,0.6,4L289.3,88.5z"/>
			<path class="st0" d="M288,80.7c-0.3-1.3-0.5-2.6-0.9-3.9l1-0.2c0.3,1.3,0.6,2.6,0.9,3.9L288,80.7z"/>
			<path class="st0" d="M286.1,73c-0.4-1.3-0.8-2.5-1.2-3.8l0.9-0.3c0.4,1.3,0.8,2.5,1.2,3.8L286.1,73z"/>
			<path class="st0" d="M283.7,65.5c-0.5-1.2-0.9-2.4-1.5-3.7l0.9-0.4c0.5,1.2,1,2.5,1.5,3.7L283.7,65.5z"/>
			<path class="st0" d="M280.6,58.2c-0.6-1.2-1.1-2.4-1.8-3.5l0.9-0.5c0.6,1.2,1.2,2.4,1.8,3.6L280.6,58.2z"/>
			<path class="st0" d="M276.9,51.2c-0.6-1.1-1.3-2.3-2-3.4l0.8-0.5c0.7,1.1,1.4,2.3,2,3.4L276.9,51.2z"/>
			<path class="st0" d="M272.8,44.5c-0.7-1.1-1.5-2.2-2.3-3.2l0.8-0.6c0.8,1.1,1.6,2.2,2.3,3.3L272.8,44.5z"/>
			<path class="st0" d="M268,38.2c-0.8-1-1.7-2-2.5-3l0.8-0.7c0.9,1,1.7,2,2.6,3.1L268,38.2z"/>
			<path class="st0" d="M118,32.3l-0.7-0.7c0.9-1,1.9-1.9,2.8-2.9l0.7,0.7C119.9,30.4,118.9,31.4,118,32.3z"/>
			<path class="st0" d="M262.8,32.2c-0.9-1-1.8-1.9-2.8-2.8l0.7-0.7c0.9,0.9,1.9,1.9,2.8,2.9L262.8,32.2z"/>
			<path class="st0" d="M123.7,26.8L123,26c1-0.9,2-1.8,3-2.6l0.6,0.8C125.6,25,124.6,25.9,123.7,26.8z"/>
			<path class="st0" d="M257.2,26.7c-1-0.9-2-1.8-3-2.6l0.6-0.8c1,0.8,2,1.7,3,2.6L257.2,26.7z"/>
			<path class="st0" d="M129.7,21.7l-0.6-0.8c1-0.8,2.1-1.6,3.2-2.4l0.6,0.8C131.8,20.1,130.8,20.9,129.7,21.7z"/>
			<path class="st0" d="M251.1,21.6c-1-0.8-2.1-1.6-3.2-2.4l0.6-0.8c1.1,0.8,2.2,1.6,3.2,2.4L251.1,21.6z"/>
			<path class="st0" d="M136.2,17.1l-0.5-0.8c1.1-0.7,2.2-1.4,3.4-2.1l0.5,0.9C138.4,15.7,137.3,16.4,136.2,17.1z"/>
			<path class="st0" d="M244.7,17c-1.1-0.7-2.2-1.4-3.4-2.1l0.5-0.9c1.1,0.7,2.3,1.4,3.4,2.1L244.7,17z"/>
			<path class="st0" d="M143,13.1l-0.5-0.9c1.2-0.6,2.4-1.3,3.5-1.8l0.4,0.9C145.3,11.8,144.1,12.4,143,13.1z"/>
			<path class="st0" d="M237.8,13c-1.2-0.6-2.3-1.2-3.5-1.8l0.4-0.9c1.2,0.6,2.4,1.2,3.6,1.8L237.8,13z"/>
			<path class="st0" d="M150,9.6l-0.4-0.9c1.2-0.5,2.4-1.1,3.7-1.5l0.4,0.9C152.5,8.5,151.2,9,150,9.6z"/>
			<path class="st0" d="M230.7,9.5c-1.2-0.5-2.4-1-3.7-1.5l0.4-0.9c1.2,0.5,2.5,1,3.7,1.5L230.7,9.5z"/>
			<path class="st0" d="M157.4,6.6L157,5.7c1.2-0.4,2.5-0.9,3.8-1.3l0.3,1C159.9,5.8,158.6,6.2,157.4,6.6z"/>
			<path class="st0" d="M223.4,6.6c-1.2-0.4-2.5-0.8-3.8-1.2l0.3-1c1.3,0.4,2.6,0.8,3.8,1.2L223.4,6.6z"/>
			<path class="st0" d="M164.9,4.3l-0.3-1c1.3-0.3,2.6-0.7,3.9-0.9l0.2,1C167.5,3.7,166.2,4,164.9,4.3z"/>
			<path class="st0" d="M215.8,4.2c-1.3-0.3-2.6-0.6-3.8-0.9l0.2-1c1.3,0.3,2.6,0.6,3.9,0.9L215.8,4.2z"/>
			<path class="st0" d="M172.6,2.6l-0.2-1c1.3-0.2,2.6-0.4,3.9-0.6l0.1,1C175.3,2.2,173.9,2.4,172.6,2.6z"/>
			<path class="st0" d="M208.1,2.5c-1.3-0.2-2.6-0.4-3.9-0.6l0.1-1c1.3,0.2,2.6,0.4,3.9,0.6L208.1,2.5z"/>
			<path class="st0" d="M180.5,1.5l-0.1-1c1.3-0.1,2.7-0.2,4-0.3l0.1,1C183.1,1.3,181.8,1.4,180.5,1.5z"/>
			<path class="st0" d="M200.2,1.5c-1.3-0.1-2.6-0.2-3.9-0.3l0.1-1c1.3,0.1,2.7,0.2,4,0.3L200.2,1.5z"/>
			<path class="st0" d="M188.4,1l0-1c1.3,0,2.7,0,4,0l0,1C191,1,189.7,1,188.4,1z"/>
		</g>
		<circle class="st0" cx="280.5" cy="175.5" r="5"/>
		<circle class="st0" cx="288.5" cy="160.5" r="2.5"/>
	</g>
	<g id="_x30_1">
		<g>
			<rect x="14.4" y="169.9" class="st2" width="187.2" height="6.2"/>
			<rect x="39.4" y="138.7" class="st2" width="18.7" height="37.4"/>
			<rect x="69.3" y="120" class="st2" width="18.7" height="56.2"/>
			<rect x="100.5" y="101.3" class="st2" width="18.7" height="74.9"/>
			<rect x="131.7" y="82.5" class="st2" width="18.7" height="93.6"/>
			<rect x="162.9" y="63.8" class="st2" width="18.7" height="112.3"/>
		</g>
		<linearGradient id="SVGID_2_" gradientUnits="userSpaceOnUse" x1="46.546" y1="105.9825" x2="216.5" y2="105.9825">
			<stop  offset="0" style="stop-color:#FBB447"/>
			<stop  offset="1" style="stop-color:#F05523"/>
		</linearGradient>
		<polygon class="st3" points="216.5,48.8 200.5,56.1 205.8,59.8 171.9,103.5 143.1,98.5 110.8,142 80,132.2 46.5,159.2 49.7,163.1 
			81.1,137.8 112.7,147.9 145.3,104 174,109 209.8,62.7 215,66.3 		"/>
		<linearGradient id="SVGID_3_" gradientUnits="userSpaceOnUse" x1="35.6339" y1="97.4075" x2="120.4711" y2="97.4075">
			<stop  offset="0" style="stop-color:#FBB447"/>
			<stop  offset="1" style="stop-color:#F05523"/>
		</linearGradient>
		<path class="st4" d="M63.1,132.7v5.7c-16-6.1-27.5-21.5-27.5-39.7c0-23.4,19-42.4,42.4-42.4c23,0,41.7,18.3,42.4,41.2h-5.3
			c-0.7-19.9-17-35.9-37.1-35.9c-20.5,0-37.1,16.7-37.1,37.1C40.9,113.9,50.1,127,63.1,132.7z M85,97c-1.3-0.7-3.1-1.5-5.4-2.4
			c-2.1-0.8-3.4-1.4-4.1-1.9c-0.6-0.5-0.9-1.3-0.9-2.2c0-0.9,0.3-1.8,1-2.4c0.7-0.7,1.5-1,2.6-1c2.2,0,3.8,1.5,4.8,4.5l5.3-2.2
			c-1.3-4.3-4-6.8-8.3-7.3v-3.5h-3.8v3.5c-2.8,0.4-4.9,1.5-6.2,3.3c-1.3,1.8-2,3.8-2,6.1c0,1.7,0.4,3.2,1.1,4.5
			c0.7,1.3,1.7,2.3,2.9,3c1.2,0.7,2.8,1.4,4.9,2.2c2.3,0.8,3.9,1.5,4.5,2.1c0.7,0.5,1,1.3,1,2.4c0,1-0.3,1.9-1,2.6
			c-0.7,0.7-1.7,1.1-3.2,1.1c-3.1,0-4.9-1.7-5.5-5l-5.9,1.5c1.2,5.3,4.3,8.2,9.3,8.8v4.6H80v-4.6c3-0.3,5.3-1.4,6.9-3.2
			c1.6-1.8,2.4-4,2.4-6.7c0-1.7-0.4-3.3-1.2-4.6C87.4,98.7,86.3,97.7,85,97z"/>
	</g>
</g>
</svg>
