<svg id="buy" xmlns="http://www.w3.org/2000/svg" viewBox="0 0 287.84 299.15"><defs><style>.cls-1{fill:#fef6e6;stroke:#eb9c2c;stroke-miterlimit:10;stroke-width:2.06px;}.cls-2{fill:#eb9c2c;}.cls-3{fill:#fff;}.cls-4{fill:#e38426;}.cls-5{fill:#e48425;}</style></defs><path class="cls-1" d="M225.26,92s-38.58-33-39.43-34.28A10.77,10.77,0,0,0,178.05,53L69.4,30.44,43.13,79.22,78.8,91.08l10.5,11.16,21.85,12.85,1.71-.87L153.21,150s25.21,15.43,29.8,18.18c9.91,5.92,16.67-1.52,13.16-9.74-1.65-3.87-21.73-18.92-21.73-18.92L160.77,120.3s3-18.86,10.82-21.19l8-2.38,11.66.52,18.64,13.93,9.73,16s-2.4,15.09,1.11,20.86c5.69,9.37,12.85,5.41,13.85,2.29,2-6.19,2.83-26.78,2.83-26.78Z" transform="translate(-6 -0.85)"/><circle class="cls-2" cx="213.17" cy="167.25" r="17.98" transform="translate(26.7 368.5) rotate(-86.36)"/><path class="cls-3" d="M221.18,154.62a15,15,0,1,0,4.61,20.64A15,15,0,0,0,221.18,154.62Zm3.25,19.78A13.34,13.34,0,1,1,220.31,156,13.35,13.35,0,0,1,224.43,174.4Z" transform="translate(-6 -0.85)"/><rect class="cls-2" x="1.27" y="27.29" width="94.11" height="54.53" transform="translate(-25.93 79.25) rotate(-68.99)"/><path class="cls-2" d="M239,281.44v4c0,8.05,12.28,14.58,27.43,14.58s27.44-6.53,27.44-14.58v-4Z" transform="translate(-6 -0.85)"/><path class="cls-2" d="M239,281.44v4a8,8,0,0,0,.4,2.48v-4.47h1.88v7.82A16.49,16.49,0,0,0,243,293v-7.58h1.88v9a23.75,23.75,0,0,0,2.69,1.56v-7.42h1.87v8.29c1,.43,2.12.82,3.26,1.17v-7.47h1.89v8a45.1,45.1,0,0,0,4.46.89v-7.19h1.88v7.43c1.49.16,3,.26,4.58.29v-7.72h1.87V300c1.51,0,3-.12,4.41-.27v-7.45h1.88v7.21a43.45,43.45,0,0,0,4.46-.87v-8.05H280v7.53c1.14-.35,2.23-.73,3.26-1.16v-8.36h1.88v7.51a27.43,27.43,0,0,0,2.69-1.53v-9.13h1.88v7.72a15.2,15.2,0,0,0,1.71-1.69v-8h1.88v5a8.05,8.05,0,0,0,.57-3v-4Z" transform="translate(-6 -0.85)"/><path class="cls-3" d="M293.84,281.44c0,8.05-12.28,14.58-27.44,14.58S239,289.49,239,281.44s12.28-14.58,27.43-14.58S293.84,273.39,293.84,281.44Z" transform="translate(-6 -0.85)"/><path class="cls-2" d="M239,275.35v4c0,8.05,12.28,14.58,27.43,14.58s27.44-6.53,27.44-14.58v-4Z" transform="translate(-6 -0.85)"/><path class="cls-2" d="M239,275.35v4a8.09,8.09,0,0,0,.4,2.48v-4.48h1.88v7.82A14.07,14.07,0,0,0,243,286.9v-7.57h1.88v9a23.75,23.75,0,0,0,2.69,1.56v-7.42h1.87v8.29c1,.43,2.12.82,3.26,1.18v-7.48h1.89v8a45.1,45.1,0,0,0,4.46.89v-7.19h1.88v7.43c1.49.16,3,.26,4.58.28v-7.71h1.87v7.71c1.51,0,3-.11,4.41-.26v-7.45h1.88v7.21c1.54-.22,3-.52,4.46-.87v-8H280V292c1.14-.35,2.23-.74,3.26-1.16v-8.36h1.88V290a25.57,25.57,0,0,0,2.69-1.54v-9.12h1.88v7.72a15.27,15.27,0,0,0,1.71-1.7v-8h1.88v5a8.05,8.05,0,0,0,.57-3v-4Z" transform="translate(-6 -0.85)"/><path class="cls-3" d="M293.84,275.35c0,8-12.28,14.57-27.44,14.57S239,283.4,239,275.35s12.28-14.58,27.43-14.58S293.84,267.3,293.84,275.35Z" transform="translate(-6 -0.85)"/><path class="cls-2" d="M239,269.26v4c0,8.05,12.28,14.58,27.43,14.58s27.44-6.53,27.44-14.58v-4Z" transform="translate(-6 -0.85)"/><path class="cls-2" d="M239,269.26v4a8,8,0,0,0,.4,2.48v-4.47h1.88v7.81a14.79,14.79,0,0,0,1.71,1.75v-7.57h1.88v9a25.36,25.36,0,0,0,2.69,1.56v-7.42h1.87v8.29c1,.43,2.12.82,3.26,1.17v-7.47h1.89v8a45.1,45.1,0,0,0,4.46.89v-7.19h1.88v7.43c1.49.16,3,.25,4.58.29v-7.72h1.87v7.72c1.51,0,3-.12,4.41-.27v-7.45h1.88v7.21a43.45,43.45,0,0,0,4.46-.87v-8.05H280v7.53c1.14-.35,2.23-.73,3.26-1.16v-8.36h1.88v7.51a27.43,27.43,0,0,0,2.69-1.53v-9.13h1.88V281a14.46,14.46,0,0,0,1.71-1.7v-8h1.88v5a8.09,8.09,0,0,0,.57-3v-4Z" transform="translate(-6 -0.85)"/><path class="cls-3" d="M293.84,269.26c0,8.05-12.28,14.57-27.44,14.57S239,277.31,239,269.26s12.28-14.59,27.43-14.59S293.84,261.2,293.84,269.26Z" transform="translate(-6 -0.85)"/><path class="cls-2" d="M239,263.16v4c0,8.05,12.28,14.57,27.43,14.57s27.44-6.52,27.44-14.57v-4Z" transform="translate(-6 -0.85)"/><path class="cls-2" d="M239,263.16v4a8.09,8.09,0,0,0,.4,2.48v-4.47h1.88V273a14.79,14.79,0,0,0,1.71,1.75v-7.57h1.88v9a25.36,25.36,0,0,0,2.69,1.56V270.3h1.87v8.29c1,.43,2.12.82,3.26,1.17v-7.47h1.89v8a45.1,45.1,0,0,0,4.46.89V274h1.88v7.43c1.49.16,3,.26,4.58.28V274h1.87v7.71c1.51,0,3-.11,4.41-.26V274h1.88v7.21a43.45,43.45,0,0,0,4.46-.87v-8H280v7.53c1.14-.35,2.23-.74,3.26-1.16V270.3h1.88v7.51a25.57,25.57,0,0,0,2.69-1.54v-9.12h1.88v7.71a15.14,15.14,0,0,0,1.71-1.68v-8h1.88v5a8.05,8.05,0,0,0,.57-3v-4Z" transform="translate(-6 -0.85)"/><path class="cls-3" d="M293.84,263.16c0,8-12.28,14.58-27.44,14.58S239,271.21,239,263.16s12.28-14.57,27.43-14.57S293.84,255.12,293.84,263.16Z" transform="translate(-6 -0.85)"/><path class="cls-2" d="M239,257.08v4c0,8.05,12.28,14.58,27.43,14.58s27.44-6.53,27.44-14.58v-4Z" transform="translate(-6 -0.85)"/><path class="cls-2" d="M239,257.08v4a8.09,8.09,0,0,0,.4,2.48v-4.47h1.88v7.81a14.79,14.79,0,0,0,1.71,1.75v-7.57h1.88v9a23.78,23.78,0,0,0,2.69,1.57v-7.42h1.87v8.28a32.84,32.84,0,0,0,3.26,1.18V266.2h1.89v8a45.07,45.07,0,0,0,4.46.9v-7.19h1.88v7.43c1.49.16,3,.26,4.58.28v-7.71h1.87v7.71c1.51,0,3-.11,4.41-.26v-7.45h1.88v7.21a43.45,43.45,0,0,0,4.46-.87V266.2H280v7.53c1.14-.35,2.23-.73,3.26-1.16v-8.36h1.88v7.51a25.57,25.57,0,0,0,2.69-1.54v-9.12h1.88v7.72a15.2,15.2,0,0,0,1.71-1.69v-8h1.88v5a8.05,8.05,0,0,0,.57-3v-4Z" transform="translate(-6 -0.85)"/><path class="cls-3" d="M293.84,257.08c0,8.05-12.28,14.57-27.44,14.57S239,265.13,239,257.08s12.28-14.58,27.43-14.58S293.84,249,293.84,257.08Z" transform="translate(-6 -0.85)"/><path class="cls-2" d="M239,251v4c0,8,12.28,14.57,27.43,14.57S293.84,263,293.84,255v-4Z" transform="translate(-6 -0.85)"/><path class="cls-2" d="M239,251v4a8,8,0,0,0,.4,2.47V253h1.88v7.81a14.07,14.07,0,0,0,1.71,1.75V255h1.88v9a23.78,23.78,0,0,0,2.69,1.57v-7.43h1.87v8.3c1,.43,2.12.82,3.26,1.17v-7.47h1.89v8A45.1,45.1,0,0,0,259,269v-7.19h1.88v7.43c1.49.16,3,.25,4.58.28v-7.71h1.87v7.71c1.51,0,3-.11,4.41-.26v-7.45h1.88V269c1.54-.22,3-.52,4.46-.87v-8.05H280v7.52c1.14-.34,2.23-.73,3.26-1.15v-8.37h1.88v7.52a25.57,25.57,0,0,0,2.69-1.54V255h1.88v7.72a15.27,15.27,0,0,0,1.71-1.7v-8h1.88v5a8.05,8.05,0,0,0,.57-3v-4Z" transform="translate(-6 -0.85)"/><path class="cls-3" d="M293.84,251c0,8-12.28,14.58-27.44,14.58S239,259,239,251s12.28-14.58,27.43-14.58S293.84,242.93,293.84,251Z" transform="translate(-6 -0.85)"/><path class="cls-2" d="M239,244.89v4c0,8.05,12.28,14.58,27.43,14.58s27.44-6.53,27.44-14.58v-4Z" transform="translate(-6 -0.85)"/><path class="cls-2" d="M239,244.89v4a7.94,7.94,0,0,0,.4,2.47v-4.47h1.88v7.82a14.79,14.79,0,0,0,1.71,1.75v-7.57h1.88v9a23.78,23.78,0,0,0,2.69,1.57V252h1.87v8.28a32.84,32.84,0,0,0,3.26,1.18V254h1.89v8a42.41,42.41,0,0,0,4.46.88v-7.18h1.88v7.43c1.49.16,3,.25,4.58.28v-7.71h1.87v7.71c1.51,0,3-.12,4.41-.26v-7.45h1.88v7.21a43.45,43.45,0,0,0,4.46-.87v-8H280v7.52a32.81,32.81,0,0,0,3.26-1.15V252h1.88v7.5A25.53,25.53,0,0,0,287.8,258v-9.12h1.88v7.72a15.2,15.2,0,0,0,1.71-1.69v-8h1.88v5a8.05,8.05,0,0,0,.57-3v-4Z" transform="translate(-6 -0.85)"/><path class="cls-2" d="M293.84,244.89c0,8.06-12.28,14.58-27.44,14.58S239,253,239,244.89s12.28-14.58,27.43-14.58S293.84,236.84,293.84,244.89Z" transform="translate(-6 -0.85)"/><path class="cls-4" d="M293.84,244.89a10.24,10.24,0,0,1-3.7,7.33,24.24,24.24,0,0,1-7.2,4.34,47.78,47.78,0,0,1-33.11.08,24.26,24.26,0,0,1-7.25-4.32,9.15,9.15,0,0,1,0-14.85,24.26,24.26,0,0,1,7.25-4.32,47.62,47.62,0,0,1,33.11.08,24,24,0,0,1,7.2,4.34A10.24,10.24,0,0,1,293.84,244.89Zm0,0a10.17,10.17,0,0,0-3.73-7.28,23.81,23.81,0,0,0-7.2-4.29,47.53,47.53,0,0,0-33,.08,23.91,23.91,0,0,0-7.15,4.31,8.91,8.91,0,0,0,0,14.37,24.19,24.19,0,0,0,7.14,4.31,47.56,47.56,0,0,0,33,.08,24,24,0,0,0,7.2-4.29A10.19,10.19,0,0,0,293.84,244.89Z" transform="translate(-6 -0.85)"/><path class="cls-3" d="M266.4,256.11c-13.87,0-24.74-5.23-24.74-11.9s10.87-11.9,24.74-11.9,24.75,5.22,24.75,11.9S280.28,256.11,266.4,256.11Zm0-22.12c-13.24,0-22.13,5.73-22.13,10.22s8.89,9.29,22.13,9.29,22.14-4.81,22.14-9.29S279.65,234,266.4,234Z" transform="translate(-6 -0.85)"/><path class="cls-2" d="M133,281.44v4c0,8.05,12.28,14.58,27.43,14.58s27.44-6.53,27.44-14.58v-4Z" transform="translate(-6 -0.85)"/><path class="cls-2" d="M133,281.44v4a8.09,8.09,0,0,0,.4,2.48v-4.48h1.88v7.82A14.79,14.79,0,0,0,137,293v-7.57h1.88v9A25.36,25.36,0,0,0,141.6,296v-7.42h1.87v8.29q1.54.64,3.27,1.17v-7.47h1.88v8c1.42.36,2.92.66,4.46.89v-7.19H155v7.43c1.49.16,3,.25,4.58.29v-7.72h1.87V300c1.51,0,3-.13,4.41-.27v-7.45h1.88v7.21a43.45,43.45,0,0,0,4.46-.87v-8.05H174v7.53c1.14-.35,2.23-.73,3.26-1.16v-8.36h1.88v7.51a25.57,25.57,0,0,0,2.69-1.54v-9.12h1.88v7.72a14.46,14.46,0,0,0,1.71-1.7v-8h1.88v5a8.09,8.09,0,0,0,.57-3v-4Z" transform="translate(-6 -0.85)"/><path class="cls-3" d="M187.91,281.44c0,8.05-12.28,14.57-27.44,14.57S133,289.49,133,281.44s12.28-14.59,27.43-14.59S187.91,273.38,187.91,281.44Z" transform="translate(-6 -0.85)"/><path class="cls-2" d="M133,275.34v4c0,8.05,12.28,14.57,27.43,14.57s27.44-6.52,27.44-14.57v-4Z" transform="translate(-6 -0.85)"/><path class="cls-2" d="M133,275.34v4a8.09,8.09,0,0,0,.4,2.48v-4.47h1.88v7.81A14.79,14.79,0,0,0,137,286.9v-7.57h1.88v9a23.78,23.78,0,0,0,2.69,1.57v-7.42h1.87v8.29q1.54.64,3.27,1.17v-7.47h1.88v8c1.42.36,2.92.66,4.46.89v-7.19H155v7.43c1.49.16,3,.26,4.58.28v-7.71h1.87v7.71c1.51,0,3-.11,4.41-.26v-7.45h1.88v7.21c1.54-.22,3-.52,4.46-.87v-8H174V292c1.14-.35,2.23-.74,3.26-1.16v-8.36h1.88V290a25.57,25.57,0,0,0,2.69-1.54v-9.12h1.88V287a14.4,14.4,0,0,0,1.71-1.69v-8h1.88v5a8.05,8.05,0,0,0,.57-3v-4Z" transform="translate(-6 -0.85)"/><path class="cls-3" d="M187.91,275.34c0,8.05-12.28,14.58-27.44,14.58S133,283.39,133,275.34s12.28-14.57,27.43-14.57S187.91,267.3,187.91,275.34Z" transform="translate(-6 -0.85)"/><path class="cls-2" d="M133,269.25v4c0,8.05,12.28,14.58,27.43,14.58s27.44-6.53,27.44-14.58v-4Z" transform="translate(-6 -0.85)"/><path class="cls-2" d="M133,269.25v4a8.09,8.09,0,0,0,.4,2.48v-4.47h1.88v7.81a14.79,14.79,0,0,0,1.71,1.75v-7.57h1.88v9a23.78,23.78,0,0,0,2.69,1.57v-7.42h1.87v8.28a32.14,32.14,0,0,0,3.27,1.18v-7.47h1.88v8a42.9,42.9,0,0,0,4.46.89v-7.18H155v7.43c1.49.16,3,.25,4.58.28v-7.71h1.87v7.71c1.51,0,3-.11,4.41-.26v-7.45h1.88v7.21a43.45,43.45,0,0,0,4.46-.87v-8.05H174v7.52a30.46,30.46,0,0,0,3.26-1.16v-8.35h1.88v7.51a27.46,27.46,0,0,0,2.69-1.54v-9.12h1.88V281a14.46,14.46,0,0,0,1.71-1.7v-8h1.88v5a8.05,8.05,0,0,0,.57-3v-4Z" transform="translate(-6 -0.85)"/><path class="cls-3" d="M187.91,269.25c0,8.05-12.28,14.58-27.44,14.58S133,277.3,133,269.25s12.28-14.58,27.43-14.58S187.91,261.2,187.91,269.25Z" transform="translate(-6 -0.85)"/><path class="cls-2" d="M133,263.16v4c0,8.05,12.28,14.57,27.43,14.57s27.44-6.52,27.44-14.57v-4Z" transform="translate(-6 -0.85)"/><path class="cls-2" d="M133,263.16v4a8,8,0,0,0,.4,2.47v-4.47h1.88V273a14.79,14.79,0,0,0,1.71,1.75v-7.57h1.88v9a23.78,23.78,0,0,0,2.69,1.57v-7.43h1.87v8.3q1.54.65,3.27,1.17v-7.47h1.88v8a42.92,42.92,0,0,0,4.46.88V274H155v7.43c1.49.16,3,.25,4.58.28V274h1.87v7.71c1.51,0,3-.11,4.41-.27V274h1.88v7.21c1.54-.22,3-.52,4.46-.87v-8H174v7.52c1.14-.34,2.23-.73,3.26-1.15v-8.37h1.88v7.52a25.57,25.57,0,0,0,2.69-1.54v-9.12h1.88v7.71a14.4,14.4,0,0,0,1.71-1.69v-8h1.88v5a8.05,8.05,0,0,0,.57-3v-4Z" transform="translate(-6 -0.85)"/><path class="cls-3" d="M187.91,263.16c0,8-12.28,14.58-27.44,14.58S133,271.21,133,263.16s12.28-14.58,27.43-14.58S187.91,255.11,187.91,263.16Z" transform="translate(-6 -0.85)"/><path class="cls-2" d="M133,257.07v4c0,8.05,12.28,14.57,27.43,14.57s27.44-6.52,27.44-14.57v-4Z" transform="translate(-6 -0.85)"/><path class="cls-2" d="M133,257.07v4a8,8,0,0,0,.4,2.47v-4.47h1.88v7.82a15.6,15.6,0,0,0,1.71,1.75v-7.57h1.88v9a23.78,23.78,0,0,0,2.69,1.57v-7.42h1.87v8.28a32.14,32.14,0,0,0,3.27,1.18V266.2h1.88v8a42.9,42.9,0,0,0,4.46.89v-7.18H155v7.43c1.49.16,3,.25,4.58.28v-7.71h1.87v7.71c1.51,0,3-.12,4.41-.26v-7.45h1.88v7.21a43.45,43.45,0,0,0,4.46-.87V266.2H174v7.52c1.14-.34,2.23-.73,3.26-1.15v-8.36h1.88v7.5a25.53,25.53,0,0,0,2.69-1.53v-9.12h1.88v7.72a15.27,15.27,0,0,0,1.71-1.7v-8h1.88v5a8.09,8.09,0,0,0,.57-3v-4Z" transform="translate(-6 -0.85)"/><path class="cls-3" d="M187.91,257.07c0,8.06-12.28,14.58-27.44,14.58S133,265.13,133,257.07s12.28-14.58,27.43-14.58S187.91,249,187.91,257.07Z" transform="translate(-6 -0.85)"/><path class="cls-2" d="M133,250.62v4c0,8.06,12.28,14.58,27.43,14.58s27.44-6.52,27.44-14.58v-4Z" transform="translate(-6 -0.85)"/><path class="cls-2" d="M133,250.62v4a8,8,0,0,0,.4,2.48v-4.47h1.88v7.82a15.6,15.6,0,0,0,1.71,1.75V254.6h1.88v9a23.78,23.78,0,0,0,2.69,1.57v-7.43h1.87v8.3q1.54.65,3.27,1.17v-7.47h1.88v8a42.92,42.92,0,0,0,4.46.88v-7.18H155v7.43c1.49.16,3,.25,4.58.28v-7.71h1.87v7.71c1.51,0,3-.11,4.41-.27v-7.44h1.88v7.21c1.54-.22,3-.52,4.46-.87v-8.05H174v7.52c1.14-.34,2.23-.73,3.26-1.15v-8.37h1.88v7.52a25.57,25.57,0,0,0,2.69-1.54V254.6h1.88v7.72a14.4,14.4,0,0,0,1.71-1.69v-8h1.88v5a8.07,8.07,0,0,0,.57-3v-4Z" transform="translate(-6 -0.85)"/><path class="cls-3" d="M187.91,250.62c0,8.05-12.28,14.58-27.44,14.58S133,258.67,133,250.62,145.32,236,160.47,236,187.91,242.57,187.91,250.62Z" transform="translate(-6 -0.85)"/><path class="cls-2" d="M133,244.53v4c0,8,12.28,14.57,27.43,14.57s27.44-6.52,27.44-14.57v-4Z" transform="translate(-6 -0.85)"/><path class="cls-2" d="M133,244.53v4a8,8,0,0,0,.4,2.47v-4.47h1.88v7.82a15.6,15.6,0,0,0,1.71,1.75v-7.57h1.88v9a23.78,23.78,0,0,0,2.69,1.57v-7.42h1.87V260a32.14,32.14,0,0,0,3.27,1.18v-7.47h1.88v8a42.9,42.9,0,0,0,4.46.89v-7.18H155v7.43c1.49.16,3,.25,4.58.28v-7.71h1.87v7.71c1.51,0,3-.12,4.41-.27v-7.44h1.88v7.21c1.54-.23,3-.52,4.46-.88v-8H174v7.52A32.82,32.82,0,0,0,177.3,260v-8.35h1.88v7.5a25.53,25.53,0,0,0,2.69-1.53v-9.12h1.88v7.71a15.2,15.2,0,0,0,1.71-1.69v-8h1.88v5a8.09,8.09,0,0,0,.57-3v-4Z" transform="translate(-6 -0.85)"/><path class="cls-3" d="M187.91,244.53c0,8.05-12.28,14.58-27.44,14.58S133,252.58,133,244.53,145.32,230,160.47,230,187.91,236.48,187.91,244.53Z" transform="translate(-6 -0.85)"/><path class="cls-2" d="M133,237.93v4c0,8.05,12.28,14.57,27.43,14.57s27.44-6.52,27.44-14.57v-4Z" transform="translate(-6 -0.85)"/><path class="cls-2" d="M133,237.93v4a8,8,0,0,0,.4,2.47v-4.46h1.88v7.81a14.07,14.07,0,0,0,1.71,1.75v-7.57h1.88v9a23.75,23.75,0,0,0,2.69,1.56v-7.42h1.87v8.29q1.54.65,3.27,1.17v-7.47h1.88v8c1.42.36,2.92.66,4.46.89v-7.19H155v7.43c1.49.16,3,.25,4.58.28v-7.71h1.87v7.71c1.51,0,3-.11,4.41-.26v-7.45h1.88V256c1.54-.22,3-.52,4.46-.87v-8H174v7.53c1.14-.35,2.23-.74,3.26-1.16v-8.36h1.88v7.51a25.57,25.57,0,0,0,2.69-1.54v-9.12h1.88v7.72a15.27,15.27,0,0,0,1.71-1.7v-8h1.88v5a8.05,8.05,0,0,0,.57-3v-4Z" transform="translate(-6 -0.85)"/><path class="cls-3" d="M187.91,237.93c0,8-12.28,14.57-27.44,14.57S133,246,133,237.93s12.28-14.59,27.43-14.59S187.91,229.87,187.91,237.93Z" transform="translate(-6 -0.85)"/><path class="cls-2" d="M133,231.83v4c0,8.05,12.28,14.58,27.43,14.58s27.44-6.53,27.44-14.58v-4Z" transform="translate(-6 -0.85)"/><path class="cls-2" d="M133,231.83v4a7.94,7.94,0,0,0,.4,2.47v-4.46h1.88v7.81a14.79,14.79,0,0,0,1.71,1.75v-7.57h1.88v9a23.78,23.78,0,0,0,2.69,1.57V239h1.87v8.28a32.14,32.14,0,0,0,3.27,1.18V241h1.88v8c1.42.36,2.92.66,4.46.89v-7.19H155v7.43c1.49.16,3,.26,4.58.28v-7.71h1.87v7.71c1.51,0,3-.11,4.41-.26v-7.45h1.88v7.21a43.45,43.45,0,0,0,4.46-.87v-8H174v7.53c1.14-.35,2.23-.73,3.26-1.16V239h1.88v7.51a27.46,27.46,0,0,0,2.69-1.54v-9.12h1.88v7.72a15.2,15.2,0,0,0,1.71-1.69v-8h1.88v5a8.05,8.05,0,0,0,.57-3v-4Z" transform="translate(-6 -0.85)"/><path class="cls-2" d="M187.92,231.68c0,8.06-12.29,14.58-27.45,14.58S133,239.74,133,231.68s12.28-14.58,27.43-14.58S187.92,223.63,187.92,231.68Z" transform="translate(-6 -0.85)"/><path class="cls-5" d="M187.92,231.68a10.29,10.29,0,0,1-3.71,7.33,24.24,24.24,0,0,1-7.2,4.34,47.77,47.77,0,0,1-33.11.08,24.26,24.26,0,0,1-7.25-4.32,9.15,9.15,0,0,1,0-14.85,24.26,24.26,0,0,1,7.25-4.32A47.62,47.62,0,0,1,177,220a24,24,0,0,1,7.2,4.34A10.29,10.29,0,0,1,187.92,231.68Zm0,0a10.22,10.22,0,0,0-3.74-7.28,23.81,23.81,0,0,0-7.2-4.29,47.54,47.54,0,0,0-33,.08,23.91,23.91,0,0,0-7.15,4.31,8.91,8.91,0,0,0,0,14.37,24.12,24.12,0,0,0,7.15,4.31,47.54,47.54,0,0,0,33,.08,24,24,0,0,0,7.2-4.29A10.24,10.24,0,0,0,187.92,231.68Z" transform="translate(-6 -0.85)"/><path class="cls-3" d="M160.47,243.05c-13.87,0-24.74-5.23-24.74-11.9s10.87-11.9,24.74-11.9,24.75,5.22,24.75,11.9S174.35,243.05,160.47,243.05Zm0-22.12c-13.24,0-22.13,5.73-22.13,10.22s8.89,9.29,22.13,9.29,22.14-4.8,22.14-9.29S173.72,220.93,160.47,220.93Z" transform="translate(-6 -0.85)"/><path class="cls-2" d="M185.23,281.44v4c0,8.05,12.28,14.58,27.44,14.58s27.43-6.53,27.43-14.58v-4Z" transform="translate(-6 -0.85)"/><path class="cls-2" d="M185.23,281.44v4a7.8,7.8,0,0,0,.4,2.48v-4.47h1.88v7.81a14.11,14.11,0,0,0,1.71,1.76v-7.58h1.87v9a25.64,25.64,0,0,0,2.69,1.56v-7.42h1.89v8.29c1,.43,2.11.83,3.25,1.18v-7.48h1.88v8c1.43.36,2.92.66,4.46.89v-7.18h1.89v7.42c1.48.17,3,.26,4.58.29v-7.71h1.87V300q2.25,0,4.41-.27v-7.44h1.88v7.21c1.54-.23,3-.52,4.46-.88v-8.05h1.88v7.53a32.82,32.82,0,0,0,3.26-1.16v-8.36h1.88v7.51a25.57,25.57,0,0,0,2.69-1.54v-9.12h1.88v7.72a15.09,15.09,0,0,0,1.7-1.69v-8h1.88v5a8.06,8.06,0,0,0,.58-3v-4Z" transform="translate(-6 -0.85)"/><path class="cls-3" d="M240.1,281.44c0,8.05-12.28,14.58-27.43,14.58s-27.44-6.53-27.44-14.58,12.28-14.58,27.44-14.58S240.1,273.39,240.1,281.44Z" transform="translate(-6 -0.85)"/><path class="cls-2" d="M185.23,275.35v4c0,8.05,12.28,14.58,27.44,14.58s27.43-6.53,27.43-14.58v-4Z" transform="translate(-6 -0.85)"/><path class="cls-2" d="M185.23,275.35v4a7.76,7.76,0,0,0,.4,2.48v-4.47h1.88v7.82a15.57,15.57,0,0,0,1.71,1.75v-7.58h1.87v9a25.64,25.64,0,0,0,2.69,1.56v-7.42h1.89v8.29c1,.43,2.11.82,3.25,1.18v-7.47h1.88v8c1.43.36,2.92.66,4.46.89v-7.18h1.89v7.42c1.48.17,3,.26,4.58.29v-7.71h1.87v7.71q2.25,0,4.41-.27v-7.44h1.88v7.21c1.54-.23,3-.52,4.46-.88v-8h1.88V292c1.14-.35,2.23-.73,3.26-1.16v-8.36h1.88V290a27.43,27.43,0,0,0,2.69-1.53v-9.13h1.88v7.72a16,16,0,0,0,1.7-1.69v-8h1.88v5a8.06,8.06,0,0,0,.58-3v-4Z" transform="translate(-6 -0.85)"/><path class="cls-3" d="M240.1,275.35c0,8-12.28,14.58-27.43,14.58s-27.44-6.53-27.44-14.58,12.28-14.58,27.44-14.58S240.1,267.3,240.1,275.35Z" transform="translate(-6 -0.85)"/><path class="cls-2" d="M185.23,269.26v4c0,8.05,12.28,14.58,27.44,14.58s27.43-6.53,27.43-14.58v-4Z" transform="translate(-6 -0.85)"/><path class="cls-2" d="M185.23,269.26v4a7.76,7.76,0,0,0,.4,2.48v-4.47h1.88v7.81a14.11,14.11,0,0,0,1.71,1.76v-7.58h1.87v9a24,24,0,0,0,2.69,1.56v-7.42h1.89v8.29c1,.43,2.11.83,3.25,1.18v-7.48h1.88v8c1.43.36,2.92.66,4.46.89V280.1h1.89v7.42a45.24,45.24,0,0,0,4.58.28v-7.7h1.87v7.7c1.5,0,3-.11,4.41-.26V280.1h1.88v7.21c1.54-.23,3-.52,4.46-.88v-8.05h1.88v7.53a32.82,32.82,0,0,0,3.26-1.16v-8.36h1.88v7.51a25.57,25.57,0,0,0,2.69-1.54v-9.12h1.88V281a15.09,15.09,0,0,0,1.7-1.69v-8h1.88v5a8.06,8.06,0,0,0,.58-3v-4Z" transform="translate(-6 -0.85)"/><path class="cls-3" d="M240.1,269.26c0,8.05-12.28,14.58-27.43,14.58s-27.44-6.53-27.44-14.58,12.28-14.58,27.44-14.58S240.1,261.21,240.1,269.26Z" transform="translate(-6 -0.85)"/><path class="cls-2" d="M185.23,263.17v4c0,8.05,12.28,14.58,27.44,14.58s27.43-6.53,27.43-14.58v-4Z" transform="translate(-6 -0.85)"/><path class="cls-2" d="M185.23,263.17v4a7.76,7.76,0,0,0,.4,2.48v-4.47h1.88V273a14.71,14.71,0,0,0,1.71,1.74v-7.57h1.87v9a25.64,25.64,0,0,0,2.69,1.56V270.3h1.89v8.29c1,.43,2.11.82,3.25,1.18V272.3h1.88v8c1.43.36,2.92.66,4.46.89V274h1.89v7.43c1.48.16,3,.26,4.58.29V274h1.87v7.72q2.25,0,4.41-.27V274h1.88v7.21a43.45,43.45,0,0,0,4.46-.87v-8h1.88v7.52c1.14-.35,2.23-.73,3.26-1.16V270.3h1.88v7.51a27.43,27.43,0,0,0,2.69-1.53v-9.13h1.88v7.72a16,16,0,0,0,1.7-1.69v-8h1.88v5a8.06,8.06,0,0,0,.58-3v-4Z" transform="translate(-6 -0.85)"/><path class="cls-3" d="M240.1,263.17c0,8.05-12.28,14.58-27.43,14.58s-27.44-6.53-27.44-14.58,12.28-14.58,27.44-14.58S240.1,255.12,240.1,263.17Z" transform="translate(-6 -0.85)"/><path class="cls-2" d="M185.23,257.08v4c0,8.05,12.28,14.58,27.44,14.58s27.43-6.53,27.43-14.58v-4Z" transform="translate(-6 -0.85)"/><path class="cls-2" d="M185.23,257.08v4a7.8,7.8,0,0,0,.4,2.48v-4.47h1.88v7.81a13.4,13.4,0,0,0,1.71,1.75v-7.57h1.87v9a25.64,25.64,0,0,0,2.69,1.56v-7.42h1.89v8.29c1,.43,2.11.82,3.25,1.18V266.2h1.88v8c1.43.36,2.92.66,4.46.89v-7.18h1.89v7.42c1.48.16,3,.26,4.58.28v-7.7h1.87v7.7c1.5,0,3-.11,4.41-.26v-7.44h1.88v7.2a43.45,43.45,0,0,0,4.46-.87V266.2h1.88v7.53c1.14-.35,2.23-.74,3.26-1.16v-8.36h1.88v7.51a25.57,25.57,0,0,0,2.69-1.54v-9.12h1.88v7.72a16,16,0,0,0,1.7-1.69v-8h1.88v5a8.06,8.06,0,0,0,.58-3v-4Z" transform="translate(-6 -0.85)"/><path class="cls-3" d="M240.1,257.08c0,8.05-12.28,14.58-27.43,14.58s-27.44-6.53-27.44-14.58,12.28-14.58,27.44-14.58S240.1,249,240.1,257.08Z" transform="translate(-6 -0.85)"/><path class="cls-2" d="M185.23,251v4c0,8,12.28,14.58,27.44,14.58S240.1,263,240.1,255v-4Z" transform="translate(-6 -0.85)"/><path class="cls-2" d="M185.23,251v4a7.76,7.76,0,0,0,.4,2.48V253h1.88v7.81a14.84,14.84,0,0,0,1.71,1.76V255h1.87v9a25.64,25.64,0,0,0,2.69,1.56v-7.42h1.89v8.29c1,.43,2.11.82,3.25,1.18v-7.47h1.88v8c1.43.36,2.92.66,4.46.89v-7.18h1.89v7.42c1.48.17,3,.25,4.58.29v-7.71h1.87v7.71q2.25,0,4.41-.27v-7.44h1.88V269a43.45,43.45,0,0,0,4.46-.87v-8h1.88v7.52c1.14-.35,2.23-.73,3.26-1.16v-8.36h1.88v7.51a27.43,27.43,0,0,0,2.69-1.53V255h1.88v7.72a16,16,0,0,0,1.7-1.69v-8h1.88v5a8.06,8.06,0,0,0,.58-3v-4Z" transform="translate(-6 -0.85)"/><path class="cls-3" d="M240.1,251c0,8.05-12.28,14.57-27.43,14.57S185.23,259,185.23,251s12.28-14.58,27.44-14.58S240.1,242.93,240.1,251Z" transform="translate(-6 -0.85)"/><path class="cls-2" d="M185.23,244.9v4c0,8.05,12.28,14.58,27.44,14.58s27.43-6.53,27.43-14.58v-4Z" transform="translate(-6 -0.85)"/><path class="cls-2" d="M185.23,244.9v4a7.8,7.8,0,0,0,.4,2.48v-4.48h1.88v7.82a14.05,14.05,0,0,0,1.71,1.75v-7.57h1.87v9a25.64,25.64,0,0,0,2.69,1.56V252h1.89v8.29c1,.43,2.11.82,3.25,1.17V254h1.88v8c1.43.36,2.92.66,4.46.89v-7.19h1.89v7.43c1.48.16,3,.26,4.58.28v-7.71h1.87v7.71c1.5,0,3-.11,4.41-.26v-7.45h1.88v7.21a43.45,43.45,0,0,0,4.46-.87v-8h1.88v7.53c1.14-.35,2.23-.73,3.26-1.16V252h1.88v7.51a25.57,25.57,0,0,0,2.69-1.54v-9.12h1.88v7.72a17,17,0,0,0,1.7-1.69v-8h1.88v5a8.06,8.06,0,0,0,.58-3v-4Z" transform="translate(-6 -0.85)"/><path class="cls-3" d="M240.1,244.9c0,8-12.28,14.57-27.43,14.57S185.23,253,185.23,244.9s12.28-14.58,27.44-14.58S240.1,236.85,240.1,244.9Z" transform="translate(-6 -0.85)"/><path class="cls-2" d="M185.23,238.81v4c0,8.05,12.28,14.58,27.44,14.58s27.43-6.53,27.43-14.58v-4Z" transform="translate(-6 -0.85)"/><path class="cls-2" d="M185.23,238.81v4a7.8,7.8,0,0,0,.4,2.48V240.8h1.88v7.81a14.05,14.05,0,0,0,1.71,1.75v-7.57h1.87v9a25.64,25.64,0,0,0,2.69,1.56v-7.42h1.89v8.29c1,.43,2.11.82,3.25,1.17v-7.47h1.88v8c1.43.36,2.92.66,4.46.89v-7.19h1.89v7.43c1.48.16,3,.26,4.58.28v-7.71h1.87v7.71c1.5,0,3-.11,4.41-.26v-7.45h1.88v7.21a43.45,43.45,0,0,0,4.46-.87v-8h1.88v7.53c1.14-.35,2.23-.73,3.26-1.16v-8.36h1.88v7.51a25.57,25.57,0,0,0,2.69-1.54v-9.12h1.88v7.72a16,16,0,0,0,1.7-1.69v-8h1.88v5a8.06,8.06,0,0,0,.58-3v-4Z" transform="translate(-6 -0.85)"/><path class="cls-3" d="M240.1,238.81c0,8.05-12.28,14.57-27.43,14.57s-27.44-6.52-27.44-14.57,12.28-14.58,27.44-14.58S240.1,230.76,240.1,238.81Z" transform="translate(-6 -0.85)"/><path class="cls-2" d="M185.23,232.71v4c0,8.05,12.28,14.57,27.44,14.57s27.43-6.52,27.43-14.57v-4Z" transform="translate(-6 -0.85)"/><path class="cls-2" d="M185.23,232.71v4a7.8,7.8,0,0,0,.4,2.48v-4.47h1.88v7.81a13.4,13.4,0,0,0,1.71,1.75V236.7h1.87v9a25.68,25.68,0,0,0,2.69,1.57v-7.42h1.89v8.29c1,.43,2.11.82,3.25,1.17v-7.47h1.88v8a43.44,43.44,0,0,0,4.46.88v-7.18h1.89V251c1.48.16,3,.25,4.58.28v-7.71h1.87v7.71c1.5,0,3-.11,4.41-.26v-7.45h1.88v7.21c1.54-.22,3-.52,4.46-.87v-8h1.88v7.53c1.14-.35,2.23-.74,3.26-1.16v-8.36h1.88v7.51a25.57,25.57,0,0,0,2.69-1.54V236.7h1.88v7.72a16,16,0,0,0,1.7-1.7v-8h1.88v5a8.06,8.06,0,0,0,.58-3v-4Z" transform="translate(-6 -0.85)"/><path class="cls-3" d="M240.1,232.71c0,8-12.28,14.58-27.43,14.58s-27.44-6.53-27.44-14.58,12.28-14.58,27.44-14.58S240.1,224.66,240.1,232.71Z" transform="translate(-6 -0.85)"/><path class="cls-2" d="M185.23,226.63v4c0,8,12.28,14.58,27.44,14.58s27.43-6.53,27.43-14.58v-4Z" transform="translate(-6 -0.85)"/><path class="cls-2" d="M185.23,226.63v4a7.76,7.76,0,0,0,.4,2.48v-4.47h1.88v7.81a14.05,14.05,0,0,0,1.71,1.75v-7.57h1.87v9a27.53,27.53,0,0,0,2.69,1.56v-7.42h1.89V242a32.64,32.64,0,0,0,3.25,1.18v-7.47h1.88v8c1.43.36,2.92.66,4.46.89v-7.19h1.89v7.43c1.48.16,3,.25,4.58.28v-7.71h1.87v7.71c1.5,0,3-.11,4.41-.26v-7.45h1.88v7.21a43.45,43.45,0,0,0,4.46-.87v-8.05h1.88v7.52a32.81,32.81,0,0,0,3.26-1.15v-8.36h1.88v7.5a23.87,23.87,0,0,0,2.69-1.53v-9.12h1.88v7.72a15.16,15.16,0,0,0,1.7-1.7v-8h1.88v5a8.06,8.06,0,0,0,.58-3v-4Z" transform="translate(-6 -0.85)"/><path class="cls-3" d="M240.1,226.63c0,8.05-12.28,14.57-27.43,14.57s-27.44-6.52-27.44-14.57,12.28-14.58,27.44-14.58S240.1,218.57,240.1,226.63Z" transform="translate(-6 -0.85)"/><path class="cls-2" d="M185.23,220.54v4c0,8,12.28,14.57,27.44,14.57s27.43-6.52,27.43-14.57v-4Z" transform="translate(-6 -0.85)"/><path class="cls-2" d="M185.23,220.54v4a7.7,7.7,0,0,0,.4,2.47v-4.47h1.88v7.82a14.77,14.77,0,0,0,1.71,1.75v-7.57h1.87v9a25.68,25.68,0,0,0,2.69,1.57v-7.42h1.89V236c1,.43,2.11.82,3.25,1.17v-7.47h1.88v8c1.43.36,2.92.66,4.46.89v-7.19h1.89v7.43c1.48.16,3,.25,4.58.28v-7.71h1.87v7.71c1.5,0,3-.11,4.41-.26v-7.45h1.88v7.21c1.54-.22,3-.52,4.46-.87v-8.05h1.88v7.53c1.14-.35,2.23-.74,3.26-1.16v-8.36h1.88v7.51a25.57,25.57,0,0,0,2.69-1.54v-9.12h1.88v7.71a15.09,15.09,0,0,0,1.7-1.69v-8h1.88v5a8.1,8.1,0,0,0,.58-3v-4Z" transform="translate(-6 -0.85)"/><path class="cls-3" d="M240.1,220.54c0,8-12.28,14.57-27.43,14.57s-27.44-6.53-27.44-14.57S197.51,206,212.67,206,240.1,212.48,240.1,220.54Z" transform="translate(-6 -0.85)"/><path class="cls-2" d="M185.23,214.44v4c0,8,12.28,14.58,27.44,14.58s27.43-6.53,27.43-14.58v-4Z" transform="translate(-6 -0.85)"/><path class="cls-2" d="M185.23,214.44v4a7.7,7.7,0,0,0,.4,2.47v-4.46h1.88v7.81a14.05,14.05,0,0,0,1.71,1.75v-7.57h1.87v9a25.68,25.68,0,0,0,2.69,1.57v-7.42h1.89v8.28a32.64,32.64,0,0,0,3.25,1.18v-7.47h1.88v8c1.43.37,2.92.66,4.46.9v-7.19h1.89v7.43c1.48.16,3,.25,4.58.28v-7.71h1.87V233c1.5,0,3-.12,4.41-.27v-7.44h1.88v7.21a43.45,43.45,0,0,0,4.46-.87v-8.05h1.88v7.52a32.81,32.81,0,0,0,3.26-1.15v-8.36h1.88v7.51a27.46,27.46,0,0,0,2.69-1.54v-9.12h1.88v7.72a16,16,0,0,0,1.7-1.69v-8h1.88v5a8.06,8.06,0,0,0,.58-3v-4Z" transform="translate(-6 -0.85)"/><path class="cls-2" d="M240.1,214.44c0,8.05-12.28,14.58-27.43,14.58s-27.44-6.53-27.44-14.58,12.28-14.58,27.44-14.58S240.1,206.39,240.1,214.44Z" transform="translate(-6 -0.85)"/><path class="cls-4" d="M240.1,214.44a10.28,10.28,0,0,1-3.7,7.33,24.37,24.37,0,0,1-7.2,4.34,47.78,47.78,0,0,1-33.11.08,24.13,24.13,0,0,1-7.26-4.33,9.17,9.17,0,0,1,0-14.84,24.29,24.29,0,0,1,7.25-4.33,47.7,47.7,0,0,1,33.11.09,24.16,24.16,0,0,1,7.2,4.34A10.28,10.28,0,0,1,240.1,214.44Zm0,0a10.23,10.23,0,0,0-3.73-7.28,24.17,24.17,0,0,0-7.2-4.3,47.46,47.46,0,0,0-33,.09,23.91,23.91,0,0,0-7.15,4.31,8.91,8.91,0,0,0,0,14.37,23.94,23.94,0,0,0,7.14,4.31,47.54,47.54,0,0,0,33,.08,23.89,23.89,0,0,0,7.2-4.29A10.2,10.2,0,0,0,240.1,214.44Z" transform="translate(-6 -0.85)"/><path class="cls-3" d="M212.67,225.66c-13.88,0-24.76-5.23-24.76-11.9s10.88-11.9,24.76-11.9,24.74,5.22,24.74,11.9S226.54,225.66,212.67,225.66Zm0-22.12c-13.25,0-22.14,5.73-22.14,10.22s8.89,9.29,22.14,9.29,22.13-4.81,22.13-9.29S225.9,203.54,212.67,203.54Z" transform="translate(-6 -0.85)"/></svg>